<svg width="141" height="144" viewBox="0 0 141 144" fill="none" xmlns="http://www.w3.org/2000/svg">
<path d="M50.7964 96.6442C45.506 96.6442 40.5935 95.7811 35.784 94.0204C31.1462 92.2251 27.1956 89.8084 23.6915 86.6667C20.9776 84.1119 18.779 81.35 17.13 78.4499C16.8552 77.9321 17.027 77.2416 17.5423 76.9654C18.0919 76.6892 18.7446 76.8618 19.0538 77.3797C20.5654 80.0726 22.6266 82.6619 25.1687 85.0441C28.4667 88.0131 32.1768 90.2572 36.5741 91.9489C41.1088 93.6061 45.7808 94.4346 50.8308 94.4346C54.5753 94.4346 58.1824 93.9168 61.5834 92.8811C64.5722 92.018 67.2174 90.8096 69.5534 89.3251C70.0688 89.0489 70.4466 88.7381 70.8589 88.4274C73.5728 86.5286 75.7027 84.1119 77.4204 81.0047C78.5884 78.8642 79.3098 76.344 79.5847 73.3404C79.7564 72.4427 79.7564 71.6487 79.7564 70.7165C79.7564 68.6451 79.7564 67.2641 79.2411 65.6415C79.0694 65.0545 79.4129 64.4331 79.9626 64.2605C80.5809 64.0879 81.1649 64.4331 81.3367 64.9855C81.8863 66.8498 81.9207 68.4034 81.9207 70.682C81.9207 71.6832 81.9207 72.6499 81.7489 73.6165C81.4741 76.8618 80.684 79.6238 79.3442 82.0405C77.4547 85.4583 75.1187 88.1167 72.1643 90.1536C71.7864 90.4644 71.2711 90.8786 70.6184 91.2239C68.2137 92.7775 65.3623 94.0549 62.2018 94.987C58.629 96.0573 54.7814 96.6097 50.8308 96.6097L50.7964 96.6442ZM49.7658 77.1725C47.4985 77.1725 45.1281 76.6892 42.9295 75.757C40.6278 74.7213 38.5666 73.3404 36.6428 71.476C35.303 70.1296 34.1006 68.576 33.0357 66.8498C32.7265 66.3319 32.8983 65.6415 33.3792 65.3307C33.8945 65.02 34.5816 65.1926 34.8908 65.676C35.8527 67.2641 36.952 68.6796 38.1544 69.8879C39.9064 71.5451 41.7271 72.8225 43.7883 73.7201C47.2924 75.2047 51.5522 75.3773 53.8539 74.0308C54.8158 73.4439 55.228 72.6844 55.228 71.476C55.228 70.751 55.0219 70.2332 54.5066 69.7153C53.7508 68.8522 51.5866 67.8165 50.8651 67.4712C48.9757 66.6081 46.09 65.3998 41.9676 63.8117C40.0094 63.0176 37.7765 61.9128 35.8183 60.9462C33.3792 59.6342 31.1806 58.0461 29.085 56.1128C26.9551 54.1449 25.1687 51.7627 23.6572 48.8282C22.2487 45.8591 21.5273 42.4067 21.5273 38.5399C21.5273 33.5339 22.9014 29.1839 25.6153 25.6279C28.4667 22.1064 32.1081 19.4481 36.4367 17.7564C40.9713 15.9956 45.7465 15.1325 50.9682 15.1325C56.5335 15.1325 61.4804 16.0302 65.6028 17.7909C66.5647 18.2397 67.5266 18.6885 68.3854 19.1028C68.7977 19.2754 69.1069 19.6552 69.1069 20.1385C69.1069 20.9326 68.1793 21.485 67.4579 21.1398C66.599 20.6909 65.6371 20.2766 64.6753 19.8278C60.8277 18.2052 56.1899 17.3766 50.8995 17.3766C45.9526 17.3766 41.4523 18.2052 37.1581 19.8624C33.1731 21.4159 29.8408 23.8326 27.2643 27.0089C24.8252 30.2196 23.6572 33.9828 23.6572 38.5745C23.6572 42.1305 24.3099 45.2722 25.581 47.896C26.9551 50.5544 28.5697 52.7294 30.4935 54.5247C32.486 56.3544 34.5472 57.839 36.7802 59.0473C38.6353 59.9795 40.8339 61.0497 42.7234 61.8093C46.8458 63.4319 49.8002 64.6402 51.724 65.5379C54.06 66.6427 55.3311 67.4712 56.0525 68.2653C56.9457 69.1284 57.3923 70.2332 57.3923 71.5451C57.3923 73.513 56.5678 75.032 54.9189 76.0332C53.5104 76.8273 51.7583 77.2416 49.6971 77.2416L49.7658 77.1725ZM61.343 48.5174C61.343 48.5174 61.1025 48.5174 60.9651 48.4484L60.2437 48.1722C57.9076 47.3091 55.8121 46.5496 53.8195 45.8936C51.4148 45.1341 49.4567 44.2019 47.7733 43.1317C46.0213 41.9233 45.1625 40.3697 45.1625 38.5054C45.1625 36.9173 45.8495 35.709 47.1893 34.9149C49.4567 33.7756 52.4798 33.5685 56.1212 34.7423C57.461 35.2602 58.9039 35.9161 60.3467 37.0209C60.8277 37.4007 60.8964 38.0911 60.5185 38.5745C60.1406 39.0578 59.4535 39.1269 58.9726 38.7471C57.7702 37.8149 56.4991 37.228 55.3998 36.7792C52.4798 35.8471 49.8345 36.0197 48.2199 36.8137C47.6016 37.159 47.3267 37.6768 47.3267 38.4709C47.3267 39.6102 47.842 40.5078 48.9757 41.2674C50.4529 42.234 52.2736 43.0626 54.4723 43.7531C56.4648 44.4091 58.5947 45.2031 60.9651 46.0662L61.6865 46.3424C62.2362 46.5496 62.5453 47.171 62.3392 47.7579C62.1674 48.2067 61.7552 48.4829 61.3086 48.4829L61.343 48.5174Z" fill="#231815"/>
<path d="M93.8757 96.6442C88.5853 96.6442 83.6384 95.7811 78.8632 94.0204C77.9357 93.6406 77.0081 93.2953 76.1149 92.812C75.5653 92.5358 75.3592 91.8799 75.634 91.3275C75.9088 90.7751 76.5959 90.5679 77.1112 90.8441C77.97 91.2584 78.8289 91.6037 79.6533 91.9489C84.188 93.6061 88.8601 94.4346 93.91 94.4346C97.6202 94.4346 101.262 93.9168 104.628 92.8811C108.304 91.8108 111.362 90.3263 113.938 88.3929C116.652 86.4941 118.748 84.0774 120.5 80.9702C122.046 78.0702 122.836 74.7213 122.836 70.6475C122.836 67.7129 122.458 65.3307 121.668 63.1902C120.843 60.9116 119.641 58.9092 118.095 57.0794C116.686 55.3878 114.763 53.7651 112.461 52.2461C110.194 50.8996 107.583 49.6913 104.8 48.6555L103.495 48.1722C101.124 47.3091 98.9257 46.515 96.9332 45.8246C94.5628 45.065 92.5703 44.1329 90.8869 43.0626C89.1349 41.8543 88.2761 40.3007 88.2761 38.4364C88.2761 36.8483 88.9631 35.6399 90.3029 34.8459C92.5359 33.7066 95.6277 33.4994 99.2348 34.6732C101.021 35.3292 102.464 36.1233 103.735 37.159C104.663 37.884 105.384 38.5399 106.071 39.2995C106.483 39.7483 106.415 40.4388 105.968 40.8531C105.522 41.2674 104.834 41.1983 104.422 40.7495C103.838 40.0935 103.22 39.5066 102.361 38.8507C101.262 37.9876 100.025 37.2971 98.5134 36.7102C95.559 35.778 92.9138 35.9506 91.3335 36.7447C90.7152 37.0899 90.4403 37.6078 90.4403 38.4019C90.4403 39.5412 90.9556 40.4388 92.0893 41.1983C93.5665 42.165 95.3872 42.9936 97.5859 43.6841C99.6127 44.3745 101.811 45.1686 104.216 46.0317L105.522 46.515C108.476 47.5853 111.19 48.8627 113.595 50.3127C116.137 51.9699 118.198 53.7306 119.744 55.5604C121.462 57.5628 122.767 59.7723 123.695 62.3271C124.588 64.7093 125 67.3331 125 70.5439C125 74.8939 124.141 78.7261 122.389 81.9024C120.5 85.3203 118.164 87.9786 115.209 90.0501C112.461 92.1215 109.163 93.7096 105.247 94.8835C101.674 95.9537 97.8263 96.5061 93.8757 96.5061V96.6442ZM92.8107 77.1725C90.5778 77.1725 88.3791 76.7583 86.421 75.9297C85.8713 75.688 85.5965 75.0666 85.8026 74.4797C86.0431 73.9273 86.6615 73.6511 87.2455 73.8927C90.4403 75.2047 94.6315 75.3428 96.8988 74.0308C97.8607 73.4439 98.2729 72.6844 98.2729 71.476C98.2729 70.751 98.0668 70.2332 97.5515 69.7153C97.0362 69.1284 95.8338 68.4034 93.91 67.4712C92.0206 66.6081 89.0318 65.3653 85.0468 63.8117C84.4285 63.6045 83.8788 63.3629 83.2605 63.0521L81.5428 62.2926C80.9588 62.0164 80.4778 61.7747 79.9969 61.4985C79.6877 61.3259 79.3442 61.1533 78.9319 60.9462C76.4928 59.6342 74.2942 58.0461 72.1986 56.1128C70.0687 54.1449 68.2823 51.7627 66.7708 48.8282C65.3623 45.8936 64.6409 42.4412 64.6409 38.5399C64.6409 33.5339 66.015 29.1839 68.7289 25.6279C71.5803 22.1064 75.2217 19.4826 79.5503 17.7564C84.0849 15.9956 88.8601 15.1325 94.0818 15.1325C99.6471 15.1325 104.594 16.0302 108.716 17.7909C112.873 19.5516 116.309 21.7612 118.885 24.385C120.637 26.1458 122.217 28.0446 123.42 29.9434C123.763 30.4613 123.591 31.1518 123.111 31.4625C122.595 31.8077 121.908 31.6351 121.599 31.1518C120.465 29.391 118.988 27.5958 117.373 25.9731C114.969 23.5564 111.774 21.5195 107.892 19.8624C104.044 18.2052 99.4066 17.3766 94.1162 17.3766C89.1693 17.3766 84.669 18.2052 80.3748 19.8624C76.3898 21.4159 73.0575 23.8326 70.481 27.0089C68.0762 30.1851 66.8738 33.9828 66.8738 38.5745C66.8738 42.1305 67.5266 45.2722 68.7633 47.896C70.1374 50.5544 71.752 52.7294 73.6758 54.5247C75.6683 56.3544 77.7296 57.839 79.9625 59.0473C80.3748 59.2545 80.7183 59.4271 81.0618 59.5997C81.5084 59.8414 81.955 60.0831 82.4703 60.3247L84.188 61.0843C84.772 61.3259 85.253 61.5676 85.837 61.7747C89.8907 63.3629 92.9138 64.6403 94.8719 65.5034C97.1736 66.6081 98.4791 67.4367 99.2005 68.2308C100.094 69.0939 100.54 70.1986 100.54 71.5106C100.54 73.4784 99.7158 74.9975 98.0668 75.9987C96.6583 76.7928 94.9063 77.2071 92.8451 77.2071L92.8107 77.1725Z" fill="#231815"/>
<path d="M4.12727 138.996C4.48616 139.356 4.88991 139.627 5.33853 139.807C5.78715 139.987 6.1909 140.078 6.63952 140.078C6.99841 140.078 7.31244 139.987 7.58161 139.852C7.85078 139.717 7.9405 139.446 7.9405 139.131C7.9405 138.951 7.89564 138.77 7.76106 138.635C7.62647 138.5 7.3573 138.319 6.95355 138.139C6.54979 137.959 5.96659 137.688 5.15908 137.373C4.80019 137.237 4.39644 137.057 3.94782 136.786C3.4992 136.561 3.05059 136.245 2.64683 135.84C2.24308 135.434 1.88419 134.983 1.61502 134.442C1.34585 133.901 1.21126 133.225 1.21126 132.458C1.21126 131.466 1.48043 130.655 1.97391 129.979C2.51225 129.302 3.18517 128.806 4.03754 128.446C4.88991 128.085 5.83201 127.95 6.86382 127.95C7.98536 127.95 8.92746 128.13 9.73497 128.446C10.5425 128.806 11.1705 129.212 11.7089 129.708C12.2024 130.204 12.6061 130.745 12.8753 131.241L9.42094 133.18C9.19663 132.819 8.92746 132.549 8.65829 132.323C8.38912 132.098 8.11995 131.962 7.80592 131.872C7.49189 131.782 7.26758 131.737 6.99841 131.737C6.68438 131.737 6.41521 131.782 6.1909 131.917C5.96659 132.053 5.87687 132.188 5.87687 132.458C5.87687 132.774 6.01145 132.999 6.32549 133.18C6.59465 133.36 6.99841 133.54 7.49189 133.721C7.98536 133.901 8.5237 134.081 9.06204 134.307C9.64524 134.532 10.1836 134.758 10.6322 135.073C11.0808 135.344 11.4846 135.704 11.8435 136.065C12.2024 136.426 12.4267 136.877 12.6061 137.373C12.7856 137.868 12.8753 138.364 12.8753 138.951C12.8753 139.762 12.6958 140.483 12.3818 141.115C12.0229 141.746 11.5743 142.287 11.036 142.693C10.4528 143.098 9.82469 143.414 9.1069 143.639C8.38912 143.865 7.62647 143.955 6.86382 143.955C5.78715 143.955 4.80019 143.775 3.90296 143.414C3.00573 143.053 2.19822 142.602 1.52529 141.971C0.85237 141.34 0.358893 140.664 0 139.942L3.14031 137.643C3.40948 138.139 3.76837 138.59 4.12727 138.951V138.996Z" fill="#231815"/>
<path d="M19.784 128.446V138.86C19.784 139.176 20.0083 139.401 20.3224 139.401H25.8403V143.324H15.6567C15.3427 143.324 15.1184 143.098 15.1184 142.783V128.401H19.784V128.446Z" fill="#231815"/>
<path d="M32.8835 139.311L33.2424 140.393L31.6274 143.369H26.3337L34.1397 128.446C34.364 127.995 35.0369 127.995 35.2612 128.446L43.0671 143.369H37.7734L36.2033 140.574L36.5173 139.356L34.678 135.254L32.8387 139.356L32.8835 139.311ZM30.8199 138.049H38.6707V141.43H30.8199V138.049Z" fill="#231815"/>
<path d="M47.8674 137.823C48.2263 138.364 48.6749 138.725 49.2581 138.996C49.8413 139.266 50.4694 139.401 51.1423 139.401C51.8152 139.401 52.4433 139.311 52.9816 139.131C53.4751 138.951 53.9237 138.725 54.3275 138.455C54.7312 138.184 55.0453 137.869 55.3593 137.598V142.422C54.7761 142.828 54.148 143.143 53.4751 143.414C52.8022 143.684 51.9049 143.82 50.8283 143.82C49.5273 143.82 48.3609 143.639 47.3291 143.279C46.2973 142.918 45.3552 142.377 44.5925 141.701C43.8299 141.024 43.2467 140.168 42.8429 139.221C42.4392 138.274 42.2148 137.192 42.2148 135.975C42.2148 134.758 42.4392 133.721 42.8429 132.729C43.2467 131.782 43.8299 130.925 44.5925 130.249C45.3552 129.573 46.2524 129.032 47.3291 128.671C48.4057 128.311 49.5721 128.13 50.8283 128.13C51.9049 128.13 52.8022 128.266 53.4751 128.536C54.148 128.807 54.7761 129.167 55.3593 129.573V134.397C55.0453 134.081 54.6864 133.811 54.3275 133.54C53.9237 133.27 53.4751 133.044 52.9816 132.864C52.4882 132.684 51.8601 132.594 51.1423 132.594C50.4245 132.594 49.7965 132.729 49.2581 132.999C48.6749 133.27 48.2263 133.631 47.8674 134.172C47.5085 134.713 47.3291 135.344 47.3291 136.11C47.3291 136.877 47.5085 137.508 47.8674 138.049V137.823Z" fill="#231815"/>
<path d="M63.0305 128.446V143.369H58.1406V128.446H63.0305ZM72.9898 128.446L67.5616 134.983C67.3373 135.254 67.3373 135.614 67.5616 135.93L73.3038 143.369H68.2793C67.8756 143.369 67.5167 143.188 67.2924 142.873L62.3128 136.381C61.9539 135.93 61.9539 135.254 62.3128 134.803L67.1578 128.897C67.3821 128.626 67.741 128.446 68.1448 128.446H72.9898Z" fill="#231815"/>
<path d="M79.6292 138.996C79.9881 139.356 80.3919 139.627 80.8405 139.807C81.2891 139.987 81.6929 140.078 82.1415 140.078C82.5004 140.078 82.8144 139.987 83.0836 139.852C83.3527 139.717 83.4425 139.446 83.4425 139.131C83.4425 138.951 83.3976 138.77 83.263 138.635C83.1284 138.5 82.8593 138.319 82.4555 138.139C82.0517 137.959 81.4685 137.688 80.661 137.373C80.3021 137.237 79.8984 137.057 79.4498 136.786C79.0012 136.561 78.5525 136.245 78.1488 135.84C77.745 135.434 77.3861 134.983 77.117 134.442C76.8478 133.901 76.7132 133.225 76.7132 132.458C76.7132 131.466 76.9824 130.655 77.4759 129.979C78.0142 129.302 78.6871 128.806 79.5395 128.446C80.3919 128.085 81.334 127.95 82.3658 127.95C83.4873 127.95 84.4294 128.13 85.2369 128.446C86.0444 128.806 86.6725 129.212 87.2108 129.708C87.7043 130.204 88.1081 130.745 88.3772 131.241L84.9229 133.18C84.6986 132.819 84.4294 132.549 84.1602 132.323C83.8911 132.098 83.6219 131.962 83.3079 131.872C82.9938 131.782 82.7695 131.737 82.5004 131.737C82.1863 131.737 81.9172 131.782 81.6929 131.917C81.4685 132.053 81.3788 132.188 81.3788 132.458C81.3788 132.774 81.5134 132.999 81.8274 133.18C82.0966 133.36 82.5004 133.54 82.9938 133.721C83.4873 133.901 84.0257 134.081 84.564 134.307C85.1472 134.532 85.6855 134.758 86.1342 135.073C86.5828 135.344 86.9865 135.704 87.3454 136.065C87.7043 136.426 87.9286 136.877 88.1081 137.373C88.2875 137.868 88.3772 138.364 88.3772 138.951C88.3772 139.762 88.1978 140.483 87.8838 141.115C87.5249 141.746 87.0763 142.287 86.5379 142.693C85.9547 143.098 85.3266 143.414 84.6089 143.639C83.8911 143.865 83.1284 143.955 82.3658 143.955C81.2891 143.955 80.3021 143.775 79.4049 143.414C78.5077 143.053 77.7002 142.602 77.0272 141.971C76.3543 141.34 75.8608 140.664 75.502 139.942L78.6423 137.643C78.9114 138.139 79.2703 138.59 79.6292 138.951V138.996Z" fill="#231815"/>
<path d="M89.1398 128.446H102.284V132.594H98.0224V143.369H93.3568V132.594H89.095V128.446H89.1398Z" fill="#231815"/>
<path d="M108.206 128.446V143.369H103.765V128.446H108.206ZM106.995 128.446H114.487V132.188H106.995V128.446ZM106.995 133.856H114.038V137.463H106.995V133.856ZM106.995 139.627H114.487V143.369H106.995V139.627Z" fill="#231815"/>
<path d="M120.767 128.446V143.369H116.102V128.446H120.767ZM119.108 128.446H121.934C123.369 128.446 124.581 128.671 125.478 129.077C126.375 129.483 127.048 130.069 127.497 130.835C127.945 131.602 128.125 132.503 128.125 133.585C128.125 134.667 127.9 135.524 127.497 136.291C127.048 137.057 126.375 137.643 125.478 138.049C124.581 138.455 123.369 138.68 121.934 138.68H119.108V134.938H121.934C122.517 134.938 122.966 134.803 123.235 134.577C123.549 134.352 123.683 133.991 123.683 133.54C123.683 133.09 123.549 132.774 123.235 132.503C122.921 132.278 122.517 132.143 121.934 132.143H119.108V128.401V128.446Z" fill="#231815"/>
<path d="M132.252 138.996C132.611 139.356 133.014 139.627 133.463 139.807C133.912 139.987 134.315 140.078 134.764 140.078C135.123 140.078 135.437 139.987 135.706 139.852C135.975 139.717 136.065 139.446 136.065 139.131C136.065 138.951 136.02 138.77 135.886 138.635C135.751 138.5 135.482 138.319 135.078 138.139C134.674 137.959 134.091 137.688 133.284 137.373C132.925 137.237 132.521 137.057 132.072 136.786C131.624 136.561 131.175 136.245 130.771 135.84C130.368 135.434 130.009 134.983 129.74 134.442C129.47 133.901 129.336 133.225 129.336 132.458C129.336 131.466 129.605 130.655 130.098 129.979C130.637 129.302 131.31 128.806 132.162 128.446C133.014 128.085 133.957 127.95 134.988 127.95C136.11 127.95 137.052 128.13 137.859 128.446C138.667 128.806 139.295 129.212 139.833 129.708C140.327 130.204 140.731 130.745 141 131.241L137.545 133.18C137.321 132.819 137.052 132.549 136.783 132.323C136.514 132.098 136.244 131.962 135.93 131.872C135.616 131.782 135.392 131.737 135.123 131.737C134.809 131.737 134.54 131.782 134.315 131.917C134.091 132.053 134.001 132.188 134.001 132.458C134.001 132.774 134.136 132.999 134.45 133.18C134.719 133.36 135.123 133.54 135.616 133.721C136.11 133.901 136.648 134.081 137.187 134.307C137.77 134.532 138.308 134.758 138.757 135.073C139.205 135.344 139.609 135.704 139.968 136.065C140.327 136.426 140.551 136.877 140.731 137.373C140.91 137.868 141 138.364 141 138.951C141 139.762 140.82 140.483 140.506 141.115C140.147 141.746 139.699 142.287 139.16 142.693C138.577 143.098 137.949 143.414 137.231 143.639C136.514 143.865 135.751 143.955 134.988 143.955C133.912 143.955 132.925 143.775 132.027 143.414C131.13 143.053 130.323 142.602 129.65 141.971C128.977 141.34 128.483 140.664 128.125 139.942L131.265 137.643C131.534 138.139 131.893 138.59 132.252 138.951V138.996Z" fill="#231815"/>
</svg>
