<svg width="37" height="35" viewBox="0 0 37 35" fill="none" xmlns="http://www.w3.org/2000/svg">
<path d="M26.2372 24.96V22.824C26.6532 22.824 27.0372 22.776 27.3892 22.68C27.7572 22.584 28.0692 22.448 28.3252 22.272C28.5972 22.096 28.8052 21.896 28.9492 21.672C29.0932 21.448 29.1652 21.216 29.1652 20.976C29.1652 20.768 29.1092 20.584 28.9972 20.424C28.8852 20.264 28.7172 20.144 28.4932 20.064C28.2852 19.968 28.0052 19.92 27.6532 19.92C27.1092 19.92 26.6692 20.072 26.3332 20.376C25.9972 20.68 25.8292 21.08 25.8292 21.576H21.0052C21.0052 20.504 21.2772 19.536 21.8212 18.672C22.3652 17.808 23.1332 17.12 24.1252 16.608C25.1332 16.096 26.3172 15.84 27.6772 15.84C29.1172 15.84 30.3332 16.048 31.3252 16.464C32.3172 16.88 33.0692 17.448 33.5812 18.168C34.0932 18.888 34.3492 19.704 34.3492 20.616C34.3492 21.688 33.9812 22.544 33.2452 23.184C32.5092 23.808 31.5252 24.264 30.2932 24.552C29.0772 24.824 27.7252 24.96 26.2372 24.96ZM27.4372 33.48C26.3012 33.48 25.2852 33.304 24.3892 32.952C23.5092 32.6 22.7652 32.12 22.1572 31.512C21.5492 30.904 21.0852 30.224 20.7652 29.472C20.4452 28.704 20.2852 27.92 20.2852 27.12H25.4692C25.4692 27.68 25.5732 28.128 25.7812 28.464C26.0052 28.8 26.2852 29.04 26.6212 29.184C26.9732 29.328 27.3252 29.4 27.6772 29.4C28.0452 29.4 28.3732 29.36 28.6612 29.28C28.9652 29.184 29.2052 29.024 29.3812 28.8C29.5572 28.56 29.6452 28.24 29.6452 27.84C29.6452 27.6 29.5892 27.368 29.4772 27.144C29.3652 26.904 29.1812 26.696 28.9252 26.52C28.6692 26.328 28.3172 26.184 27.8692 26.088C27.4372 25.976 26.8932 25.92 26.2372 25.92V23.424C27.5332 23.424 28.7012 23.52 29.7412 23.712C30.7972 23.888 31.7012 24.176 32.4532 24.576C33.2212 24.976 33.8052 25.488 34.2052 26.112C34.6212 26.72 34.8292 27.456 34.8292 28.32C34.8292 29.312 34.5412 30.2 33.9652 30.984C33.4052 31.752 32.5732 32.36 31.4692 32.808C30.3812 33.256 29.0372 33.48 27.4372 33.48Z" fill="white"/>
<path d="M8.99996 24.6C8.99996 25.272 9.05596 25.88 9.16796 26.424C9.29596 26.952 9.46396 27.408 9.67196 27.792C9.89596 28.16 10.152 28.44 10.44 28.632C10.728 28.824 11.048 28.92 11.4 28.92C11.752 28.92 12.072 28.824 12.36 28.632C12.648 28.44 12.896 28.16 13.104 27.792C13.328 27.408 13.496 26.952 13.608 26.424C13.736 25.88 13.8 25.272 13.8 24.6C13.8 23.928 13.736 23.328 13.608 22.8C13.496 22.256 13.328 21.8 13.104 21.432C12.896 21.048 12.648 20.76 12.36 20.568C12.072 20.376 11.752 20.28 11.4 20.28C11.048 20.28 10.728 20.376 10.44 20.568C10.152 20.76 9.89596 21.048 9.67196 21.432C9.46396 21.8 9.29596 22.256 9.16796 22.8C9.05596 23.328 8.99996 23.928 8.99996 24.6ZM3.95996 24.6C3.95996 22.68 4.27196 21.072 4.89596 19.776C5.51996 18.48 6.39196 17.504 7.51196 16.848C8.63196 16.176 9.92796 15.84 11.4 15.84C12.952 15.84 14.28 16.176 15.384 16.848C16.504 17.504 17.36 18.48 17.952 19.776C18.544 21.072 18.84 22.68 18.84 24.6C18.84 26.52 18.544 28.128 17.952 29.424C17.36 30.72 16.504 31.704 15.384 32.376C14.28 33.032 12.952 33.36 11.4 33.36C9.92796 33.36 8.63196 33.032 7.51196 32.376C6.39196 31.704 5.51996 30.72 4.89596 29.424C4.27196 28.128 3.95996 26.52 3.95996 24.6Z" fill="white"/>
<path d="M25.4688 27.1201H20.2852C20.2852 27.92 20.4447 28.7038 20.7646 29.4717C21.0846 30.2235 21.5484 30.9038 22.1562 31.5117C22.7642 32.1197 23.5087 32.6001 24.3887 32.9521C25.1727 33.2602 26.0488 33.4332 27.0166 33.4717L27.4365 33.4805C29.0365 33.4805 30.3807 33.2556 31.4688 32.8076C32.5726 32.3597 33.4049 31.7523 33.9648 30.9844C34.4688 30.2985 34.7524 29.5326 34.8154 28.6875L34.8291 28.3203C34.8291 27.4565 34.6209 26.7202 34.2051 26.1123C33.8052 25.4884 33.2209 24.9761 32.4531 24.5762C32.1692 24.4251 31.8634 24.289 31.5361 24.1699C32.206 23.9088 32.7764 23.581 33.2451 23.1836C33.9348 22.5836 34.3016 21.7939 34.3447 20.8145L34.3486 20.6162C34.3486 19.8182 34.1528 19.0934 33.7607 18.4424L33.5811 18.168C33.0691 17.448 32.3162 16.8799 31.3242 16.4639C30.4563 16.1 29.4169 15.8951 28.2061 15.8496L27.6768 15.8398C26.3168 15.8398 25.133 16.0964 24.125 16.6084C23.133 17.1204 22.3643 17.8079 21.8203 18.6719C21.2763 19.5359 21.0049 20.5042 21.0049 21.5762H25.8291C25.8291 21.142 25.9574 20.7812 26.2148 20.4941L26.333 20.376C26.6689 20.0722 27.1086 19.92 27.6523 19.9199C28.0043 19.9199 28.2852 19.9685 28.4932 20.0645L28.6504 20.1318C28.7972 20.2068 28.9131 20.3039 28.9971 20.4238C29.109 20.5837 29.165 20.7678 29.165 20.9756L29.1514 21.1543C29.1244 21.3314 29.0563 21.5038 28.9482 21.6719C28.8042 21.8958 28.5962 22.0965 28.3242 22.2725C28.0683 22.4483 27.7564 22.5838 27.3887 22.6797C27.0367 22.7757 26.6523 22.8242 26.2363 22.8242V25.9199C26.8923 25.9199 27.4371 25.9759 27.8691 26.0879C28.3169 26.1839 28.6689 26.3276 28.9248 26.5195C29.1807 26.6954 29.3645 26.9037 29.4766 27.1436C29.5885 27.3675 29.6445 27.5999 29.6445 27.8398C29.6445 28.2397 29.5568 28.5598 29.3809 28.7998C29.2049 29.0237 28.965 29.1843 28.6611 29.2803L28.4375 29.332C28.2064 29.3771 27.9529 29.4004 27.6768 29.4004V28.4004C27.9633 28.4004 28.1917 28.3681 28.3721 28.3203C28.4839 28.2831 28.543 28.2397 28.5801 28.1982C28.5998 28.1656 28.6445 28.0681 28.6445 27.8398C28.6445 27.7619 28.6277 27.6821 28.582 27.5908L28.5762 27.5791L28.5703 27.5664C28.5519 27.5271 28.5173 27.4735 28.4443 27.4102L28.3584 27.3438L28.3408 27.332L28.3242 27.3203C28.2481 27.2633 28.1165 27.1925 27.9023 27.1279L27.6592 27.0654L27.6387 27.0615L27.6182 27.0557C27.3391 26.9833 26.9607 26.9365 26.4688 26.9248V27.1201L26.4727 27.2783C26.4893 27.6154 26.5592 27.814 26.625 27.9258C26.7489 28.106 26.8784 28.2046 27.0127 28.2627C27.2493 28.3578 27.4685 28.4004 27.6768 28.4004V29.4004L27.4131 29.3867C27.149 29.3598 26.8852 29.2916 26.6211 29.1836C26.2851 29.0396 26.0043 28.7999 25.7803 28.4639C25.5724 28.1279 25.4688 27.6799 25.4688 27.1201ZM26.8291 21.7764C26.9332 21.7595 27.0326 21.7403 27.126 21.7148L27.1367 21.7119C27.4163 21.6389 27.6162 21.5455 27.7578 21.4482L27.7812 21.4326C27.9591 21.3175 28.0551 21.2122 28.1074 21.1309C28.1434 21.0749 28.1543 21.035 28.1592 21.0068L28.1562 21.0059L28.1143 20.9902L28.0732 20.9717C28.0472 20.9598 27.9282 20.9199 27.6523 20.9199C27.3044 20.92 27.1205 21.0118 27.0039 21.1172C26.8986 21.2124 26.8291 21.3328 26.8291 21.5762V21.7764ZM35.3428 20.8633C35.2875 22.0871 34.8168 23.1416 33.9004 23.9385L33.8906 23.9463C33.8127 24.0123 33.7321 24.0754 33.6504 24.1377C34.2049 24.5279 34.6704 24.9948 35.0293 25.5469C35.5777 26.3484 35.8291 27.2905 35.8291 28.3203L35.8242 28.5439C35.7828 29.657 35.4312 30.6769 34.7705 31.5762C34.077 32.5259 33.0784 33.2317 31.8486 33.7314L31.8496 33.7324C30.6058 34.2446 29.123 34.4805 27.4365 34.4805C26.3524 34.4805 25.3417 34.3326 24.415 34.0244L24.0234 33.8828L24.0176 33.8809C23.0248 33.4837 22.1624 32.9319 21.4492 32.2188C20.8423 31.6117 20.3544 30.9341 19.9922 30.1875L19.8447 29.8633L19.8418 29.8564C19.4731 28.9716 19.2852 28.0574 19.2852 27.1201V26.1201H25.2363V22.5762H20.0049V21.5762L20.0088 21.3428C20.0463 20.1817 20.3657 19.1068 20.9746 18.1396C21.6225 17.1107 22.5307 16.3057 23.666 15.7197L23.6719 15.7168C24.8459 15.1205 26.191 14.8398 27.6768 14.8398C29.0159 14.8398 30.2217 15.0082 31.2715 15.373L31.7109 15.542C32.7669 15.9848 33.6392 16.6031 34.2725 17.4219L34.3955 17.5889C35.0319 18.4838 35.3486 19.5037 35.3486 20.6162L35.3428 20.8633Z" fill="black" fill-opacity="0.87"/>
<path d="M18.8398 24.5996C18.8398 22.7997 18.5799 21.274 18.0596 20.0225L17.9521 19.7764C17.3601 18.4804 16.5038 17.5037 15.3838 16.8477C14.3489 16.2178 13.117 15.8831 11.6885 15.8438L11.4004 15.8398C9.92839 15.8398 8.63172 16.1757 7.51172 16.8477C6.39175 17.5037 5.52047 18.4804 4.89648 19.7764L4.78223 20.0225C4.23383 21.2739 3.96 22.7998 3.95996 24.5996C3.95996 26.5196 4.27248 28.1278 4.89648 29.4238C5.52044 30.7197 6.39184 31.704 7.51172 32.376C8.5617 32.991 9.76663 33.318 11.126 33.3564L11.4004 33.3604C12.9522 33.3603 14.2799 33.0319 15.3838 32.376C16.4338 31.7459 17.2519 30.8416 17.8379 29.6631L17.9521 29.4238C18.5441 28.1279 18.8398 26.5195 18.8398 24.5996ZM12.7998 24.5996C12.7998 23.9893 12.7412 23.4703 12.6357 23.0352L12.6318 23.0186L12.6289 23.002C12.5574 22.6549 12.4638 22.3759 12.3584 22.1543L12.25 21.9521L12.2363 21.9307L12.2246 21.9082C12.112 21.7003 12.0011 21.5639 11.9014 21.4746L11.8057 21.4004C11.685 21.3199 11.5583 21.2803 11.4004 21.2803C11.2423 21.2803 11.1159 21.3199 10.9951 21.4004C10.8656 21.4867 10.7069 21.6446 10.54 21.9287C10.3931 22.19 10.2562 22.5459 10.1445 23.0166C10.0512 23.4602 10 23.9855 10 24.5996C10 25.2103 10.0508 25.7442 10.1445 26.2061C10.2537 26.6513 10.3899 27.0104 10.542 27.2959C10.6614 27.4876 10.7777 27.6221 10.8857 27.7158L10.9951 27.7998C11.1158 27.8802 11.2424 27.9199 11.4004 27.9199V28.9199L11.2695 28.915C11.0116 28.897 10.7718 28.8252 10.5498 28.6992L10.4404 28.6318C10.1524 28.4398 9.89587 28.16 9.67188 27.792C9.46389 27.408 9.29596 26.9518 9.16797 26.4238C9.05599 25.8799 9 25.2715 9 24.5996C9.00002 23.9278 9.05599 23.3277 9.16797 22.7998C9.29596 22.2559 9.4639 21.7996 9.67188 21.4316C9.86792 21.0956 10.0889 20.8335 10.334 20.6445L10.4404 20.5684C10.7284 20.3764 11.0484 20.2803 11.4004 20.2803L11.5303 20.2842C11.8314 20.3051 12.1083 20.4003 12.3604 20.5684C12.6481 20.7603 12.8957 21.0481 13.1035 21.4316C13.3275 21.7996 13.4964 22.2559 13.6084 22.7998C13.7364 23.3277 13.7998 23.9278 13.7998 24.5996C13.7998 25.2715 13.7364 25.8799 13.6084 26.4238C13.4964 26.9518 13.3275 27.408 13.1035 27.792C12.8956 28.1598 12.6482 28.4399 12.3604 28.6318L12.251 28.6992C11.992 28.8463 11.7084 28.9199 11.4004 28.9199V27.9199C11.5583 27.9199 11.685 27.8803 11.8057 27.7998C11.9374 27.7119 12.0859 27.5608 12.2334 27.2998L12.2402 27.2881L12.3555 27.0674C12.4654 26.8318 12.5591 26.5506 12.6299 26.2168L12.6318 26.2061L12.6348 26.1953C12.742 25.7397 12.7998 25.2095 12.7998 24.5996ZM19.8398 24.5996C19.8398 26.6158 19.5298 28.3764 18.8613 29.8398C18.1933 31.302 17.2075 32.448 15.8984 33.2334L15.8945 33.2354C14.6067 34.0006 13.0945 34.3603 11.4004 34.3604C9.8765 34.3604 8.48443 34.04 7.25098 33.376L7.00684 33.2393L6.99707 33.2334C5.77462 32.4998 4.82088 31.4523 4.12988 30.127L3.99512 29.8574C3.28803 28.3887 2.95996 26.6218 2.95996 24.5996C2.96 22.5775 3.28799 20.8105 3.99512 19.3418C4.69401 17.8904 5.69181 16.7573 6.99707 15.9902C8.29152 15.2136 9.77071 14.8398 11.4004 14.8398C13.0924 14.8399 14.6033 15.2064 15.8896 15.9854C17.2043 16.7555 18.1926 17.8966 18.8613 19.3604C19.5298 20.8237 19.8398 22.5836 19.8398 24.5996Z" fill="black" fill-opacity="0.87"/>
<path d="M31.2581 1.89355L33.7095 2.87333L30.5921 10.6734L28.1406 9.69365L31.2581 1.89355ZM32.061 4.47598L32.8404 2.52595L34.3224 3.11827C35.0876 3.42408 35.6648 3.77971 36.0541 4.18516C36.4509 4.59357 36.6805 5.04289 36.7431 5.53311C36.816 6.01887 36.7411 6.54032 36.5185 7.09747C36.2988 7.64719 35.9936 8.0766 35.603 8.38571C35.2198 8.69779 34.7437 8.86505 34.1748 8.8875C33.6132 8.91291 32.9499 8.77271 32.1847 8.46691L30.7027 7.87459L31.4821 5.92457L32.9641 6.51688C33.2687 6.63861 33.5242 6.66751 33.7307 6.60357C33.9371 6.53963 34.0864 6.39252 34.1784 6.16223C34.2705 5.93194 34.2637 5.72248 34.1582 5.53384C34.0527 5.34521 33.8476 5.19002 33.543 5.06829L32.061 4.47598Z" fill="black"/>
<path d="M21.2864 8.56784L21.5653 6.48645L25.7637 7.04908L25.4848 9.13047L21.2864 8.56784ZM22.1231 2.32366L22.4021 0.242265L26.6005 0.804894L26.3216 2.88629L22.1231 2.32366ZM21.7247 5.29708L21.9956 3.27515L25.9562 3.80591L25.6853 5.82783L21.7247 5.29708ZM20.5942 0L23.0919 0.334709L21.9762 8.66029L19.4785 8.32558L20.5942 0Z" fill="black"/>
<path d="M9.34872 3.26127L9.06055 0.939079L16.4439 0.0228271L16.7321 2.34502L14.3504 2.64058L15.0967 8.65445L12.4768 8.97957L11.7305 2.9657L9.34872 3.26127Z" fill="black"/>
<path d="M2.32559 8.96897C2.57876 9.16873 2.84071 9.32612 3.11145 9.44114C3.37919 9.54875 3.6438 9.60586 3.90528 9.61247C4.17418 9.61608 4.42361 9.57148 4.65359 9.47865C4.84647 9.4008 4.9947 9.29783 5.09829 9.16975C5.19888 9.03425 5.21474 8.88118 5.14587 8.71056C5.10395 8.6067 5.03093 8.53265 4.9268 8.48841C4.83009 8.44117 4.65841 8.41126 4.41177 8.39866C4.16512 8.38606 3.79744 8.3835 3.30871 8.39097C3.0933 8.39165 2.83774 8.37833 2.54203 8.35103C2.25373 8.32074 1.95789 8.25036 1.65448 8.13989C1.3585 8.02643 1.07793 7.85498 0.812782 7.62555C0.555051 7.39312 0.346834 7.08032 0.188132 6.68714C-0.0184796 6.17527 -0.0549114 5.6896 0.0788365 5.23014C0.212584 4.77068 0.469789 4.3606 0.850451 3.9999C1.23111 3.6392 1.69222 3.34955 2.23377 3.13096C2.81982 2.89441 3.3565 2.78131 3.8438 2.79167C4.33852 2.79903 4.77331 2.88235 5.14817 3.04161C5.53046 3.19789 5.84597 3.38111 6.09472 3.59128L4.68514 5.3249C4.49159 5.18735 4.29967 5.09659 4.10938 5.05262C3.92351 4.99823 3.74591 4.97502 3.57658 4.98298C3.40725 4.99094 3.25211 5.02336 3.11116 5.08025C2.94053 5.14912 2.81156 5.23569 2.72424 5.33996C2.64433 5.44122 2.62983 5.55492 2.68074 5.68103C2.74362 5.83682 2.87021 5.9367 3.0605 5.98067C3.25521 6.01423 3.49665 6.02461 3.78481 6.01183C4.06998 5.99162 4.3871 5.97577 4.73617 5.96428C5.09266 5.94979 5.42475 5.97104 5.73244 6.02801C6.03714 6.07756 6.31523 6.16806 6.5667 6.29948C6.82559 6.42792 7.05045 6.60028 7.24128 6.81658C7.42912 7.02545 7.58442 7.28197 7.70719 7.58613C7.88086 8.0164 7.94605 8.43438 7.90276 8.84008C7.85647 9.23836 7.72466 9.60645 7.50734 9.94435C7.29744 10.2793 7.02577 10.5787 6.69235 10.8427C6.35892 11.1067 5.99191 11.3195 5.59131 11.4812C5.03492 11.7058 4.4782 11.8227 3.92114 11.8319C3.3745 11.8455 2.86246 11.7631 2.38503 11.5849C1.90761 11.4066 1.50052 11.1568 1.16377 10.8355L2.32559 8.96897Z" fill="black"/>
</svg>
