<svg width="38" height="35" viewBox="0 0 38 35" fill="none" xmlns="http://www.w3.org/2000/svg">
<path d="M19.5647 30.24L29.5967 16.2H33.9167V33H28.3967V28.776L29.1167 28.512V22.896L26.1647 26.64H32.7167L33.1247 25.8H36.5567V30.24H19.5647Z" fill="white"/>
<path d="M9.00002 24.6C9.00002 25.272 9.05602 25.88 9.16802 26.424C9.29602 26.952 9.46402 27.408 9.67202 27.792C9.89602 28.16 10.152 28.44 10.44 28.632C10.728 28.824 11.048 28.92 11.4 28.92C11.752 28.92 12.072 28.824 12.36 28.632C12.648 28.44 12.896 28.16 13.104 27.792C13.328 27.408 13.496 26.952 13.608 26.424C13.736 25.88 13.8 25.272 13.8 24.6C13.8 23.928 13.736 23.328 13.608 22.8C13.496 22.256 13.328 21.8 13.104 21.432C12.896 21.048 12.648 20.76 12.36 20.568C12.072 20.376 11.752 20.28 11.4 20.28C11.048 20.28 10.728 20.376 10.44 20.568C10.152 20.76 9.89602 21.048 9.67202 21.432C9.46402 21.8 9.29602 22.256 9.16802 22.8C9.05602 23.328 9.00002 23.928 9.00002 24.6ZM3.96002 24.6C3.96002 22.68 4.27202 21.072 4.89602 19.776C5.52002 18.48 6.39202 17.504 7.51202 16.848C8.63202 16.176 9.92802 15.84 11.4 15.84C12.952 15.84 14.28 16.176 15.384 16.848C16.504 17.504 17.36 18.48 17.952 19.776C18.544 21.072 18.84 22.68 18.84 24.6C18.84 26.52 18.544 28.128 17.952 29.424C17.36 30.72 16.504 31.704 15.384 32.376C14.28 33.032 12.952 33.36 11.4 33.36C9.92802 33.36 8.63202 33.032 7.51202 32.376C6.39202 31.704 5.52002 30.72 4.89602 29.424C4.27202 28.128 3.96002 26.52 3.96002 24.6Z" fill="white"/>
<path d="M29.5967 16.2002L19.5645 30.2402H28.3965V33H33.917V30.2402H36.5566V25.7998H33.917V16.2002H29.5967ZM29.1162 26.6396H26.165L29.1162 22.8965V26.6396ZM34.917 24.7998H37.5566V31.2402H34.917V34H27.3965V31.2402H17.6211L29.082 15.2002H34.917V24.7998Z" fill="black" fill-opacity="0.87"/>
<path d="M18.8398 24.5996C18.8398 22.7997 18.5799 21.274 18.0596 20.0225L17.9521 19.7764C17.3601 18.4804 16.5038 17.5037 15.3838 16.8477C14.3489 16.2178 13.117 15.8831 11.6885 15.8438L11.4004 15.8398C9.92839 15.8398 8.63172 16.1757 7.51172 16.8477C6.39175 17.5037 5.52047 18.4804 4.89648 19.7764L4.78223 20.0225C4.23383 21.2739 3.96 22.7998 3.95996 24.5996C3.95996 26.5196 4.27248 28.1278 4.89648 29.4238C5.52044 30.7197 6.39184 31.704 7.51172 32.376C8.5617 32.991 9.76663 33.318 11.126 33.3564L11.4004 33.3604C12.9522 33.3603 14.2799 33.0319 15.3838 32.376C16.4338 31.7459 17.2519 30.8416 17.8379 29.6631L17.9521 29.4238C18.5441 28.1279 18.8398 26.5195 18.8398 24.5996ZM12.7998 24.5996C12.7998 23.9893 12.7412 23.4703 12.6357 23.0352L12.6318 23.0186L12.6289 23.002C12.5574 22.6549 12.4638 22.3759 12.3584 22.1543L12.25 21.9521L12.2363 21.9307L12.2246 21.9082C12.112 21.7003 12.0011 21.5639 11.9014 21.4746L11.8057 21.4004C11.685 21.3199 11.5583 21.2803 11.4004 21.2803C11.2423 21.2803 11.1159 21.3199 10.9951 21.4004C10.8656 21.4867 10.7069 21.6446 10.54 21.9287C10.3931 22.19 10.2562 22.5459 10.1445 23.0166C10.0512 23.4602 10 23.9855 10 24.5996C10 25.2103 10.0508 25.7442 10.1445 26.2061C10.2537 26.6513 10.3899 27.0104 10.542 27.2959C10.6614 27.4876 10.7777 27.6221 10.8857 27.7158L10.9951 27.7998C11.1158 27.8802 11.2424 27.9199 11.4004 27.9199V28.9199L11.2695 28.915C11.0116 28.897 10.7718 28.8252 10.5498 28.6992L10.4404 28.6318C10.1524 28.4398 9.89587 28.16 9.67188 27.792C9.46389 27.408 9.29596 26.9518 9.16797 26.4238C9.05599 25.8799 9 25.2715 9 24.5996C9.00002 23.9278 9.05599 23.3277 9.16797 22.7998C9.29596 22.2559 9.4639 21.7996 9.67188 21.4316C9.86792 21.0956 10.0889 20.8335 10.334 20.6445L10.4404 20.5684C10.7284 20.3764 11.0484 20.2803 11.4004 20.2803L11.5303 20.2842C11.8314 20.3051 12.1083 20.4003 12.3604 20.5684C12.6481 20.7603 12.8957 21.0481 13.1035 21.4316C13.3275 21.7996 13.4964 22.2559 13.6084 22.7998C13.7364 23.3277 13.7998 23.9278 13.7998 24.5996C13.7998 25.2715 13.7364 25.8799 13.6084 26.4238C13.4964 26.9518 13.3275 27.408 13.1035 27.792C12.8956 28.1598 12.6482 28.4399 12.3604 28.6318L12.251 28.6992C11.992 28.8463 11.7084 28.9199 11.4004 28.9199V27.9199C11.5583 27.9199 11.685 27.8803 11.8057 27.7998C11.9374 27.7119 12.0859 27.5608 12.2334 27.2998L12.2402 27.2881L12.3555 27.0674C12.4654 26.8318 12.5591 26.5506 12.6299 26.2168L12.6318 26.2061L12.6348 26.1953C12.742 25.7397 12.7998 25.2095 12.7998 24.5996ZM19.8398 24.5996C19.8398 26.6158 19.5298 28.3764 18.8613 29.8398C18.1933 31.302 17.2075 32.448 15.8984 33.2334L15.8945 33.2354C14.6067 34.0006 13.0945 34.3603 11.4004 34.3604C9.8765 34.3604 8.48443 34.04 7.25098 33.376L7.00684 33.2393L6.99707 33.2334C5.77462 32.4998 4.82088 31.4523 4.12988 30.127L3.99512 29.8574C3.28803 28.3887 2.95996 26.6218 2.95996 24.5996C2.96 22.5775 3.28799 20.8105 3.99512 19.3418C4.69401 17.8904 5.69181 16.7573 6.99707 15.9902C8.29152 15.2136 9.77071 14.8398 11.4004 14.8398C13.0924 14.8399 14.6033 15.2064 15.8896 15.9854C17.2043 16.7555 18.1926 17.8966 18.8613 19.3604C19.5298 20.8237 19.8398 22.5836 19.8398 24.5996Z" fill="black" fill-opacity="0.87"/>
<path d="M31.258 1.89349L33.7094 2.87327L30.592 10.6734L28.1405 9.69359L31.258 1.89349ZM32.0609 4.47592L32.8403 2.52589L34.3223 3.11821C35.0874 3.42402 35.6647 3.77965 36.054 4.18509C36.4508 4.59351 36.6804 5.04283 36.743 5.53305C36.8159 6.0188 36.741 6.54026 36.5183 7.09741C36.2986 7.64713 35.9935 8.07654 35.6029 8.38565C35.2197 8.69773 34.7436 8.86499 34.1746 8.88744C33.6131 8.91285 32.9497 8.77265 32.1846 8.46685L30.7026 7.87453L31.4819 5.92451L32.964 6.51682C33.2685 6.63855 33.5241 6.66745 33.7305 6.60351C33.937 6.53957 34.0863 6.39246 34.1783 6.16217C34.2703 5.93188 34.2636 5.72242 34.1581 5.53378C34.0525 5.34515 33.8475 5.18996 33.5429 5.06823L32.0609 4.47592Z" fill="black"/>
<path d="M21.2862 8.56784L21.5652 6.48645L25.7636 7.04908L25.4847 9.13047L21.2862 8.56784ZM22.123 2.32366L22.4019 0.242265L26.6004 0.804894L26.3215 2.88629L22.123 2.32366ZM21.7245 5.29708L21.9955 3.27515L25.9561 3.80591L25.6851 5.82783L21.7245 5.29708ZM20.5941 0L23.0918 0.334709L21.9761 8.66029L19.4784 8.32558L20.5941 0Z" fill="black"/>
<path d="M9.34891 3.26124L9.06073 0.939048L16.4441 0.0227966L16.7323 2.34499L14.3505 2.64055L15.0968 8.65442L12.4769 8.97954L11.7306 2.96567L9.34891 3.26124Z" fill="black"/>
<path d="M2.32565 8.96897C2.57882 9.16873 2.84077 9.32612 3.11151 9.44114C3.37925 9.54875 3.64386 9.60586 3.90534 9.61247C4.17424 9.61608 4.42367 9.57148 4.65365 9.47865C4.84653 9.4008 4.99476 9.29783 5.09835 9.16975C5.19894 9.03425 5.21481 8.88118 5.14594 8.71056C5.10401 8.6067 5.03099 8.53265 4.92686 8.48841C4.83015 8.44117 4.65847 8.41126 4.41183 8.39866C4.16518 8.38606 3.7975 8.3835 3.30877 8.39097C3.09336 8.39165 2.83781 8.37833 2.54209 8.35103C2.2538 8.32074 1.95795 8.25036 1.65454 8.13989C1.35856 8.02643 1.07799 7.85498 0.812843 7.62555C0.555112 7.39312 0.346895 7.08032 0.188193 6.68714C-0.0184186 6.17527 -0.0548504 5.6896 0.0788975 5.23014C0.212645 4.77068 0.46985 4.3606 0.850512 3.9999C1.23117 3.6392 1.69228 3.34955 2.23383 3.13096C2.81989 2.89441 3.35656 2.78131 3.84386 2.79167C4.33858 2.79903 4.77337 2.88235 5.14824 3.04161C5.53052 3.19789 5.84603 3.38111 6.09478 3.59128L4.6852 5.3249C4.49165 5.18735 4.29973 5.09659 4.10944 5.05262C3.92357 4.99823 3.74597 4.97502 3.57664 4.98298C3.40731 4.99094 3.25217 5.02336 3.11122 5.08025C2.94059 5.14912 2.81162 5.23569 2.7243 5.33996C2.64439 5.44122 2.6299 5.55492 2.6808 5.68103C2.74368 5.83682 2.87027 5.9367 3.06056 5.98067C3.25527 6.01423 3.49671 6.02461 3.78487 6.01183C4.07004 5.99162 4.38716 5.97577 4.73623 5.96428C5.09272 5.94979 5.42481 5.97104 5.7325 6.02801C6.0372 6.07756 6.31529 6.16806 6.56676 6.29948C6.82565 6.42792 7.05051 6.60028 7.24134 6.81658C7.42918 7.02545 7.58448 7.28197 7.70725 7.58613C7.88092 8.0164 7.94611 8.43438 7.90282 8.84008C7.85653 9.23836 7.72472 9.60645 7.5074 9.94435C7.2975 10.2793 7.02583 10.5787 6.69241 10.8427C6.35898 11.1067 5.99197 11.3195 5.59137 11.4812C5.03499 11.7058 4.47826 11.8227 3.9212 11.8319C3.37456 11.8455 2.86252 11.7631 2.38509 11.5849C1.90767 11.4066 1.50058 11.1568 1.16384 10.8355L2.32565 8.96897Z" fill="black"/>
</svg>
