<svg width="32" height="32" viewBox="0 0 32 32" fill="none" xmlns="http://www.w3.org/2000/svg">
<path d="M23.8337 28C23.8337 26.9713 23.6307 25.9523 23.237 25.002C22.8433 24.0517 22.2661 23.1882 21.5388 22.4609C20.8114 21.7336 19.9481 21.1563 18.9977 20.7627C18.0474 20.369 17.0284 20.167 15.9997 20.167C14.9712 20.167 13.9528 20.3692 13.0026 20.7627C12.0522 21.1564 11.188 21.7335 10.4606 22.4609C9.73343 23.1882 9.157 24.0518 8.76337 25.002C8.3697 25.9523 8.16669 26.9713 8.16669 28C8.16669 28.8284 7.49511 29.5 6.66669 29.5C5.83826 29.5 5.16669 28.8284 5.16669 28C5.16669 26.5775 5.44657 25.1688 5.99091 23.8545C6.5353 22.5402 7.33365 21.3458 8.33954 20.3398C9.34549 19.3339 10.5398 18.5356 11.8542 17.9912C13.1684 17.4468 14.5772 17.167 15.9997 17.167C17.4223 17.167 18.8318 17.4468 20.1462 17.9912C21.4604 18.5356 22.6549 19.334 23.6608 20.3398C24.6666 21.3457 25.4641 22.5403 26.0085 23.8545C26.5529 25.1688 26.8337 26.5774 26.8337 28C26.8337 28.8283 26.162 29.4998 25.3337 29.5C24.5053 29.5 23.8337 28.8284 23.8337 28ZM19.8337 9.33301C19.8336 8.31654 19.4293 7.34184 18.7106 6.62305C17.9917 5.90416 17.0164 5.5 15.9997 5.5C14.9831 5.50009 14.0085 5.90423 13.2897 6.62305C12.5709 7.34186 12.1668 8.31646 12.1667 9.33301C12.1667 10.3497 12.5708 11.3251 13.2897 12.0439C14.0085 12.7627 14.9832 13.1669 15.9997 13.167C17.0164 13.167 17.9917 12.7628 18.7106 12.0439C19.4295 11.3251 19.8337 10.3497 19.8337 9.33301ZM22.8337 9.33301C22.8337 11.1453 22.1132 12.8835 20.8317 14.165C19.5502 15.4465 17.812 16.167 15.9997 16.167C14.1875 16.1669 12.4491 15.4465 11.1677 14.165C9.88637 12.8836 9.16669 11.1452 9.16669 9.33301C9.16677 7.52081 9.88624 5.7824 11.1677 4.50098C12.4491 3.21955 14.1875 2.50009 15.9997 2.5C17.8119 2.5 19.5503 3.21968 20.8317 4.50098C22.1131 5.7824 22.8336 7.52081 22.8337 9.33301Z" fill="black" fill-opacity="0.87"/>
</svg>
