<svg width="24" height="24" viewBox="0 0 24 24" fill="none" xmlns="http://www.w3.org/2000/svg">
<path d="M21 13C21 13.5523 20.5523 14 20 14C19.4477 14 19 13.5523 19 13V9.44043L14.8662 13.6396L14.8642 13.6416C14.7728 13.7339 14.6913 13.8178 14.6152 13.8857C13.4756 14.9049 11.7547 14.9043 10.6152 13.8848C10.6099 13.88 10.6048 13.875 10.5996 13.8701C10.5197 13.7954 10.4419 13.7186 10.3662 13.6396V13.6406C10.2481 13.5214 10.224 13.4965 10.206 13.4805H10.2051C10.0217 13.3164 9.78408 13.2256 9.53807 13.2256C9.29408 13.2257 9.05862 13.315 8.87596 13.4766C8.8242 13.5254 8.77369 13.5755 8.72459 13.627C8.72094 13.6308 8.71756 13.6349 8.71385 13.6387L4.71287 17.7012C4.3255 18.0945 3.69236 18.1 3.29881 17.7129C2.90544 17.3255 2.90001 16.6924 3.28709 16.2988L7.28807 12.2354C7.3639 12.1562 7.44239 12.0797 7.52244 12.0049L7.53807 11.9893C8.088 11.4973 8.80023 11.2257 9.53807 11.2256C10.2761 11.2256 10.989 11.4972 11.539 11.9893H11.5381L11.7871 12.2334L11.8008 12.2471C11.85 12.2987 11.9012 12.3485 11.9531 12.3975C12.3335 12.7344 12.9031 12.7337 13.2822 12.3945L13.4433 12.2344L17.6123 8H14C13.4477 8 13 7.55228 13 7C13 6.44772 13.4477 6 14 6H20C20.5523 6 21 6.44772 21 7V13Z" fill="#0D99FF"/>
</svg>
