<svg width="24" height="24" viewBox="0 0 24 24" fill="none" xmlns="http://www.w3.org/2000/svg">
<path d="M9.9225 9.66667H8.4C7.56 9.66667 7.14 9.66667 6.819 9.83622C6.53677 9.98536 6.30731 10.2233 6.1635 10.516C6 10.8489 6 11.2844 6 12.1556V16.5111C6 17.3822 6 17.8178 6.1635 18.1507C6.30731 18.4434 6.53677 18.6813 6.819 18.8304C7.13925 19 7.55925 19 8.39775 19H15.6022C16.4407 19 16.86 19 17.1802 18.8304C17.463 18.6811 17.6925 18.4431 17.8365 18.1507C18 17.8178 18 17.3838 18 16.5142V12.1532C18 11.2837 18 10.8481 17.8365 10.516C17.6925 10.2232 17.4628 9.98522 17.1802 9.83622C16.86 9.66667 16.44 9.66667 15.6 9.66667H14.0775M9.9225 9.66667H14.0768C14.0995 9.66677 14.122 9.66222 14.143 9.65327C14.164 9.64433 14.1831 9.63117 14.1992 9.61455C14.2153 9.59793 14.2281 9.57817 14.2368 9.55642C14.2455 9.53466 14.25 9.51134 14.25 9.48778V7.33333C14.25 6.71449 14.0129 6.121 13.591 5.68342C13.169 5.24583 12.5967 5 12 5C11.4033 5 10.831 5.24583 10.409 5.68342C9.98705 6.121 9.75 6.71449 9.75 7.33333V9.48778C9.75 9.53522 9.76817 9.58072 9.80052 9.61427C9.83287 9.64782 9.87675 9.66667 9.9225 9.66667Z" stroke="#202020" stroke-width="2" stroke-linecap="round" stroke-linejoin="round"/>
</svg>
