<svg width="32" height="32" viewBox="0 0 32 32" fill="none" xmlns="http://www.w3.org/2000/svg">
<path d="M25.1663 15.2693C25.1663 14.4792 25.1549 14.35 25.1283 14.2478C25.0946 14.1202 25.0392 13.9986 24.9652 13.8894C24.9046 13.8011 24.8075 13.6984 24.224 13.1902L24.222 13.1872L17.8216 7.58763C17.3072 7.1373 16.983 6.85577 16.721 6.65989C16.4743 6.47542 16.3729 6.43779 16.3314 6.42552L16.3285 6.42454C16.1145 6.36096 15.8859 6.36036 15.6693 6.42454L15.6673 6.42552C15.6258 6.4378 15.5248 6.47489 15.2786 6.65892C15.017 6.85456 14.6941 7.13551 14.179 7.58567L7.77865 13.1872C7.18356 13.7083 7.09416 13.802 7.03548 13.8884L7.03451 13.8894C6.95989 13.9992 6.90507 14.1213 6.87142 14.2497C6.84525 14.3496 6.83334 14.4781 6.83334 15.2693V22.6667C6.83334 23.3085 6.83377 23.7151 6.85482 24.0241C6.86487 24.1715 6.87846 24.2691 6.89095 24.3337L6.9222 24.446C6.98075 24.5875 7.06694 24.7166 7.17513 24.8249C7.28291 24.9328 7.41038 25.0192 7.55111 25.0779L7.66537 25.1091C7.73047 25.1217 7.8284 25.1352 7.97591 25.1452C8.28513 25.1663 8.69154 25.1667 9.33334 25.1667C9.97513 25.1667 10.3815 25.1663 10.6908 25.1452C10.9865 25.1251 11.0829 25.0913 11.1156 25.0779C11.2563 25.0192 11.3838 24.9328 11.4915 24.8249C11.5998 24.7165 11.6859 24.5876 11.7445 24.446C11.7574 24.4148 11.7917 24.3197 11.8119 24.0241C11.8329 23.7151 11.8333 23.3085 11.8333 22.6667V21.3337C11.8333 20.2287 12.2727 19.1688 13.054 18.3874C13.8354 17.606 14.8953 17.1667 16.0003 17.1667C17.1053 17.1668 18.1653 17.6061 18.9466 18.3874C19.7278 19.1688 20.1663 20.2288 20.1663 21.3337V22.6667C20.1663 23.3085 20.1678 23.7151 20.1888 24.0241C20.1989 24.1716 20.2124 24.2691 20.2249 24.3337L20.2552 24.446C20.3137 24.5874 20.4 24.7166 20.5081 24.8249C20.6161 24.9329 20.7441 25.0192 20.8851 25.0779L20.9984 25.1091C21.0634 25.1217 21.1613 25.1352 21.3089 25.1452C21.6181 25.1663 22.0247 25.1667 22.6663 25.1667C23.3079 25.1667 23.7146 25.1663 24.0238 25.1452C24.3189 25.1251 24.4157 25.0914 24.4486 25.0779C24.5894 25.0192 24.7177 24.9329 24.8255 24.8249C24.9336 24.7166 25.02 24.5874 25.0785 24.446C25.0914 24.4147 25.1247 24.3193 25.1449 24.0241C25.1659 23.7151 25.1663 23.3085 25.1663 22.6667V15.2693ZM28.1663 22.6667C28.1663 23.2675 28.1676 23.7936 28.138 24.2283C28.1075 24.6761 28.0396 25.1365 27.8499 25.5945C27.6408 26.0997 27.3341 26.5592 26.9476 26.946C26.5609 27.3331 26.1014 27.6397 25.596 27.8493L25.5941 27.8503C25.1361 28.0395 24.6761 28.1069 24.2279 28.1374C23.7931 28.167 23.2672 28.1667 22.6663 28.1667C22.0658 28.1667 21.5404 28.167 21.1058 28.1374C20.6576 28.1069 20.1976 28.0395 19.7396 27.8503L19.7376 27.8493C19.2323 27.6398 18.7728 27.333 18.3861 26.946C17.9993 26.5589 17.6919 26.0992 17.4827 25.5935C17.2936 25.136 17.2261 24.6756 17.1956 24.2283C17.166 23.7936 17.1663 23.2675 17.1663 22.6667V21.3337C17.1663 21.0243 17.0433 20.7273 16.8245 20.5085C16.6058 20.2899 16.3096 20.1668 16.0003 20.1667C15.6909 20.1667 15.3939 20.2897 15.1751 20.5085C14.9564 20.7273 14.8333 21.0243 14.8333 21.3337V22.6667C14.8333 23.2675 14.8346 23.7936 14.805 24.2283C14.7745 24.6761 14.7066 25.1365 14.5169 25.5945C14.3078 26.0998 14.0011 26.5591 13.6146 26.946C13.2279 27.333 12.7683 27.6397 12.263 27.8493L12.2611 27.8503C11.8032 28.0395 11.343 28.1069 10.8949 28.1374C10.4601 28.167 9.93419 28.1667 9.33334 28.1667C8.73248 28.1667 8.20659 28.167 7.77181 28.1374C7.32363 28.1069 6.86351 28.0395 6.4056 27.8503L6.40365 27.8493C5.89833 27.6397 5.43875 27.333 5.05209 26.946C4.66557 26.5591 4.35888 26.0998 4.14974 25.5945L4.08431 25.4226C3.94378 25.0215 3.88838 24.6202 3.86166 24.2283C3.83204 23.7936 3.83334 23.2675 3.83334 22.6667V15.2693C3.83333 14.6365 3.82193 14.0504 3.96908 13.489C4.0894 13.0298 4.28709 12.5944 4.55404 12.2019C4.87922 11.7235 5.32574 11.3475 5.80209 10.9304L12.2044 5.32688L12.8831 4.73899C13.0955 4.55892 13.2944 4.39569 13.4818 4.25559C13.8717 3.9641 14.2989 3.70269 14.8167 3.54954C15.5892 3.3206 16.4114 3.3189 17.1839 3.54856L17.1829 3.54954C17.7004 3.70274 18.1277 3.96484 18.5179 4.25657C18.8939 4.53767 19.3171 4.90953 19.7972 5.32981L26.5492 11.238C26.8359 11.4929 27.0977 11.7437 27.3187 12.0281L27.4466 12.2029L27.4476 12.2048C27.6804 12.548 27.861 12.9234 27.9827 13.3191L28.0316 13.49C28.1415 13.9113 28.1627 14.3457 28.1663 14.8034V22.6667Z" fill="black" fill-opacity="0.87"/>
</svg>
