<svg width="32" height="32" viewBox="0 0 32 32" fill="none" xmlns="http://www.w3.org/2000/svg">
<path d="M26.4999 15.9991C26.4999 15.7784 26.4315 15.5636 26.3046 15.3849L26.2469 15.3107L24.8602 13.6837C24.3061 13.0342 23.9709 12.226 23.9012 11.3761L23.9003 11.3722L23.7313 9.24036L23.7196 9.14661C23.6827 8.93107 23.5804 8.731 23.4247 8.57532C23.2466 8.39735 23.0106 8.2888 22.7596 8.26868H22.7587L20.6259 8.09778H20.6229C19.7749 8.02816 18.9678 7.69505 18.3173 7.14172L18.3163 7.14075L16.6884 5.75403V5.75305C16.4982 5.59086 16.2543 5.5011 15.9999 5.5011C15.7478 5.50113 15.5042 5.5914 15.3124 5.755H15.3114L13.6835 7.14075C13.0331 7.69535 12.2249 8.03166 11.3729 8.09973H11.3719L9.24109 8.26868H9.24011C8.98904 8.28857 8.75333 8.39739 8.57507 8.57532C8.39669 8.7535 8.28756 8.99 8.26746 9.24133L8.09656 11.3732C8.0289 12.2224 7.69729 13.0314 7.13953 13.6847L7.13855 13.6837L5.75476 15.3126H5.75378C5.59044 15.5044 5.50085 15.7482 5.50085 16.0001C5.50087 16.252 5.59045 16.4959 5.75378 16.6876H5.75476L7.13855 18.3156H7.13953C7.69375 18.9653 8.02905 19.7738 8.09753 20.6251V20.6261L8.26843 22.7579V22.7589C8.28837 23.0099 8.39716 23.2457 8.57507 23.424C8.75309 23.6022 8.98904 23.7113 9.24011 23.7316L11.3729 23.9025H11.3719C12.1174 23.9613 12.83 24.2243 13.4325 24.6603L13.6844 24.8575L13.6854 24.8585L15.3114 26.2452H15.3124C15.5042 26.4088 15.7478 26.4991 15.9999 26.4991C16.252 26.4991 16.4965 26.4089 16.6884 26.2452L18.3163 24.8585L18.3173 24.8575C18.9675 24.3041 19.7757 23.9702 20.6268 23.9025L22.7596 23.7316L22.8534 23.7198C23.069 23.683 23.269 23.5798 23.4247 23.424C23.6026 23.2458 23.7113 23.0099 23.7313 22.7589L23.9022 20.6261C23.9702 19.772 24.3074 18.9653 24.8593 18.3165V18.3156L26.246 16.6876L26.2469 16.6866C26.4105 16.4949 26.4998 16.2511 26.4999 15.9991ZM18.9393 12.2726C19.5251 11.6869 20.4746 11.687 21.0604 12.2726C21.6462 12.8583 21.6461 13.8079 21.0604 14.3937L15.7274 19.7277C15.4462 20.0089 15.0646 20.1671 14.6669 20.1671C14.2692 20.1671 13.8876 20.0088 13.6063 19.7277L10.9393 17.0607C10.3536 16.4749 10.3537 15.5254 10.9393 14.9396C11.5251 14.3538 12.4746 14.3538 13.0604 14.9396L14.6659 16.545L18.9393 12.2726ZM29.4999 15.9991C29.4998 16.9644 29.1554 17.8974 28.5292 18.632L27.1434 20.2609L27.1425 20.2599C26.9961 20.4322 26.9099 20.6443 26.8925 20.8644V20.8654L26.7216 22.9982C26.6448 23.9597 26.2286 24.8627 25.5468 25.545C24.9074 26.1848 24.0737 26.5912 23.1796 26.7032L22.9999 26.7218L20.8661 26.8927H20.8651C20.6427 26.9103 20.4315 26.9981 20.2616 27.1427L20.2606 27.1417L18.6337 28.5275L18.6346 28.5284C17.8999 29.155 16.9655 29.4991 15.9999 29.4991C15.0342 29.4991 14.0999 29.1551 13.3651 28.5284L11.7401 27.1427L11.6053 27.045C11.4636 26.9585 11.3027 26.9058 11.1356 26.8927H11.1337L9.00085 26.7218H8.99988C8.03795 26.6444 7.13501 26.2268 6.453 25.5441C5.77128 24.8616 5.35476 23.9588 5.2782 22.9972L5.1073 20.8654C5.08936 20.6432 5.00193 20.4324 4.8573 20.2628L4.85632 20.2618L3.4696 18.632L3.47058 18.631C2.84537 17.8966 2.50087 16.9646 2.50085 16.0001C2.50085 15.0353 2.84494 14.1018 3.47058 13.3673L4.85632 11.7384L4.85828 11.7365C5.00137 11.5688 5.08843 11.3597 5.10632 11.1349V11.1339L5.27722 9.00208C5.35421 8.03942 5.7717 7.13573 6.45496 6.45325C7.13797 5.77103 8.04145 5.35455 9.00378 5.27844L11.1337 5.10852C11.3561 5.09075 11.5674 5.00333 11.7372 4.85852H11.7382L13.3651 3.47278C14.0999 2.84604 15.0341 2.50113 15.9999 2.5011C16.963 2.5011 17.8973 2.84225 18.6337 3.46985L20.2616 4.85657L20.3964 4.95422C20.5386 5.04116 20.7 5.09375 20.868 5.10754H20.8671L22.9979 5.27844C23.9595 5.35522 24.8625 5.77144 25.5448 6.45325C26.1845 7.09262 26.591 7.92637 26.703 8.82043L26.7216 9.00012V9.0011L26.8915 11.131L26.9178 11.297C26.9442 11.4051 26.9871 11.5083 27.0448 11.6027L27.1425 11.7374L28.5292 13.3644C29.1558 14.0992 29.4999 15.0334 29.4999 15.9991Z" fill="black" fill-opacity="0.87"/>
</svg>
