<svg width="180" height="180" viewBox="0 0 180 180" fill="none" xmlns="http://www.w3.org/2000/svg">
<rect width="180" height="180" fill="white"/>
<path d="M61.0177 148.562C53.4228 148.562 46.3704 147.321 39.466 144.789C32.8081 142.207 27.1366 138.731 22.1063 134.213C18.2102 130.539 15.0539 126.567 12.6867 122.396C12.2921 121.651 12.5387 120.658 13.2785 120.261C14.0675 119.863 15.0046 120.112 15.4484 120.857C17.6184 124.729 20.5774 128.453 24.2269 131.879C28.9614 136.149 34.2877 139.377 40.6003 141.81C47.1102 144.193 53.8173 145.385 61.067 145.385C66.4426 145.385 71.6209 144.64 76.5033 143.15C80.7939 141.909 84.5914 140.171 87.9449 138.036C88.6847 137.639 89.2272 137.192 89.819 136.745C93.7151 134.014 96.7727 130.539 99.2386 126.07C100.915 122.992 101.951 119.367 102.346 115.047C102.592 113.756 102.592 112.614 102.592 111.274C102.592 108.295 102.592 106.308 101.852 103.975C101.606 103.131 102.099 102.237 102.888 101.989C103.776 101.74 104.614 102.237 104.861 103.031C105.65 105.713 105.699 107.947 105.699 111.224C105.699 112.664 105.699 114.054 105.453 115.444C105.058 120.112 103.924 124.084 102 127.56C99.2879 132.475 95.9343 136.298 91.693 139.228C91.1506 139.675 90.4108 140.271 89.4738 140.767C86.0216 143.001 81.9282 144.839 77.391 146.179C72.262 147.718 66.7385 148.513 61.067 148.513L61.0177 148.562ZM59.5381 120.559C56.2832 120.559 52.8803 119.863 49.724 118.523C46.4197 117.033 43.4607 115.047 40.6989 112.366C38.7755 110.43 37.0494 108.195 35.5206 105.713C35.0767 104.968 35.3233 103.975 36.0138 103.528C36.7535 103.081 37.7399 103.329 38.1837 104.024C39.5646 106.308 41.1428 108.344 42.8689 110.082C45.3841 112.465 47.9979 114.302 50.9569 115.593C55.9873 117.728 62.1026 117.977 65.4069 116.04C66.7878 115.196 67.3796 114.104 67.3796 112.366C67.3796 111.323 67.0837 110.579 66.3439 109.834C65.259 108.592 62.152 107.103 61.1163 106.606C58.4038 105.365 54.2612 103.627 48.3431 101.343C45.532 100.201 42.3264 98.6123 39.5153 97.222C36.0138 95.3353 32.8575 93.0513 29.8491 90.2707C26.7914 87.4406 24.2269 84.0145 22.057 79.7941C20.0349 75.524 18.9993 70.5588 18.9993 64.9977C18.9993 57.7982 20.972 51.542 24.868 46.4278C28.9614 41.3633 34.189 37.54 40.403 35.1071C46.9129 32.5748 53.768 31.3335 61.2643 31.3335C69.2537 31.3335 76.3554 32.6245 82.2734 35.1567C83.6543 35.8022 85.0352 36.4477 86.2681 37.0435C86.86 37.2918 87.3038 37.8379 87.3038 38.5331C87.3038 39.6751 85.9722 40.4695 84.9366 39.973C83.7036 39.3275 82.3228 38.7317 80.9419 38.0862C75.4183 35.7525 68.7605 34.5609 61.1656 34.5609C54.0639 34.5609 47.6033 35.7525 41.4387 38.1359C35.7179 40.3702 30.9341 43.8459 27.2353 48.4139C23.7337 53.0315 22.057 58.4436 22.057 65.0474C22.057 70.1616 22.994 74.6799 24.8187 78.4535C26.7914 82.2767 29.1093 85.4048 31.8711 87.9867C34.7315 90.6183 37.6906 92.7533 40.8962 94.4912C43.5593 95.8318 46.7156 97.371 49.4281 98.4634C55.3462 100.797 59.5875 102.535 62.3492 103.826C65.7028 105.415 67.5276 106.606 68.5632 107.748C69.8455 108.99 70.4866 110.579 70.4866 112.465C70.4866 115.295 69.303 117.48 66.9357 118.92C64.9137 120.062 62.3986 120.658 59.4395 120.658L59.5381 120.559ZM76.1581 79.3472C76.1581 79.3472 75.8129 79.3472 75.6156 79.2479L74.5799 78.8507C71.2264 77.6094 68.218 76.5171 65.3576 75.5737C61.9054 74.4813 59.0943 73.1407 56.6777 71.6015C54.1626 69.8636 52.9296 67.6293 52.9296 64.9481C52.9296 62.6641 53.916 60.9262 55.8393 59.7842C59.0943 58.1457 63.4342 57.8478 68.6619 59.536C70.5852 60.2808 72.6566 61.2242 74.7279 62.813C75.4183 63.3592 75.517 64.3522 74.9745 65.0474C74.432 65.7425 73.4456 65.8418 72.7552 65.2956C71.0291 63.955 69.2043 63.1109 67.6262 62.4655C63.4342 61.1249 59.6368 61.3731 57.3189 62.5151C56.4311 63.0116 56.0366 63.7564 56.0366 64.8984C56.0366 66.5369 56.7764 67.8279 58.4038 68.9203C60.5245 70.3105 63.1383 71.5022 66.2946 72.4952C69.155 73.4386 72.2127 74.5806 75.6156 75.8219L76.6513 76.2191C77.4403 76.5171 77.8842 77.4108 77.5883 78.2549C77.3417 78.9004 76.7499 79.2976 76.1088 79.2976L76.1581 79.3472Z" fill="#231815"/>
<path d="M122.862 148.562C115.267 148.562 108.165 147.321 101.31 144.789C99.9784 144.243 98.6468 143.746 97.3646 143.051C96.5755 142.654 96.2796 141.71 96.6741 140.916C97.0687 140.122 98.055 139.824 98.7948 140.221C100.028 140.817 101.261 141.313 102.444 141.81C108.954 144.193 115.661 145.385 122.911 145.385C128.237 145.385 133.465 144.64 138.298 143.15C143.575 141.611 147.964 139.476 151.663 136.696C155.559 133.965 158.567 130.489 161.083 126.02C163.302 121.85 164.436 117.033 164.436 111.174C164.436 106.954 163.894 103.528 162.759 100.449C161.576 97.1724 159.85 94.2926 157.63 91.661C155.608 89.228 152.847 86.8944 149.542 84.7097C146.287 82.7732 142.539 81.0354 138.545 79.5458L136.671 78.8507C133.268 77.6094 130.111 76.4674 127.251 75.4744C123.848 74.382 120.988 73.0414 118.571 71.5022C116.056 69.7643 114.823 67.53 114.823 64.8488C114.823 62.5648 115.809 60.8269 117.733 59.6849C120.938 58.0464 125.377 57.7485 130.555 59.4367C133.12 60.3801 135.191 61.5221 137.016 63.0116C138.347 64.0543 139.383 64.9977 140.369 66.0901C140.961 66.7356 140.862 67.7286 140.221 68.3244C139.58 68.9203 138.594 68.821 138.002 68.1755C137.164 67.2321 136.276 66.388 135.043 65.4446C133.465 64.2033 131.689 63.2102 129.519 62.3662C125.278 61.0255 121.481 61.2738 119.212 62.4158C118.324 62.9123 117.93 63.6571 117.93 64.7991C117.93 66.4376 118.67 67.7286 120.297 68.821C122.418 70.2112 125.032 71.4029 128.188 72.3959C131.098 73.389 134.254 74.531 137.706 75.7723L139.58 76.4674C143.822 78.0066 147.718 79.8438 151.17 81.9291C154.819 84.3125 157.778 86.8447 159.998 89.4763C162.464 92.3561 164.338 95.5339 165.669 99.2081C166.951 102.634 167.543 106.408 167.543 111.025C167.543 117.282 166.31 122.793 163.795 127.361C161.083 132.277 157.729 136.1 153.488 139.079C149.542 142.058 144.808 144.342 139.186 146.03C134.057 147.569 128.533 148.364 122.862 148.364V148.562ZM121.333 120.559C118.127 120.559 114.971 119.963 112.16 118.771C111.371 118.424 110.976 117.53 111.272 116.686C111.617 115.891 112.505 115.494 113.343 115.842C117.93 117.728 123.947 117.927 127.202 116.04C128.582 115.196 129.174 114.104 129.174 112.366C129.174 111.323 128.878 110.579 128.139 109.834C127.399 108.99 125.673 107.947 122.911 106.606C120.199 105.365 115.908 103.578 110.187 101.343C109.299 101.045 108.51 100.698 107.623 100.251L105.157 99.1585C104.318 98.7613 103.628 98.4137 102.937 98.0165C102.494 97.7682 102 97.52 101.409 97.222C97.9071 95.3353 94.7508 93.0513 91.7424 90.2707C88.6847 87.4406 86.1202 84.0145 83.9503 79.7941C81.9282 75.5737 80.8926 70.6084 80.8926 64.9977C80.8926 57.7982 82.8653 51.542 86.7613 46.4278C90.8547 41.3633 96.0823 37.5897 102.296 35.1071C108.806 32.5748 115.661 31.3335 123.158 31.3335C131.147 31.3335 138.249 32.6245 144.167 35.1567C150.134 37.689 155.066 40.8667 158.765 44.6403C161.28 47.1726 163.548 49.9034 165.275 52.6343C165.768 53.3791 165.521 54.3721 164.831 54.819C164.091 55.3155 163.105 55.0673 162.661 54.3721C161.033 51.8399 158.913 49.258 156.595 46.9243C153.143 43.4486 148.556 40.5192 142.983 38.1359C137.46 35.7525 130.802 34.5609 123.207 34.5609C116.105 34.5609 109.645 35.7525 103.48 38.1359C97.7591 40.3702 92.9753 43.8459 89.2765 48.4139C85.8243 52.9819 84.0982 58.4436 84.0982 65.0474C84.0982 70.1616 85.0352 74.6799 86.8107 78.4535C88.7834 82.2767 91.1013 85.4048 93.863 87.9867C96.7235 90.6183 99.6825 92.7533 102.888 94.4912C103.48 94.7891 103.973 95.0373 104.466 95.2856C105.107 95.6332 105.749 95.9807 106.488 96.3283L108.954 97.4207C109.793 97.7682 110.483 98.1158 111.321 98.4137C117.141 100.698 121.481 102.535 124.292 103.776C127.596 105.365 129.47 106.557 130.506 107.699C131.788 108.94 132.429 110.529 132.429 112.416C132.429 115.246 131.246 117.431 128.878 118.87C126.856 120.012 124.341 120.608 121.382 120.608L121.333 120.559Z" fill="#231815"/>
</svg>
